<svg width="32" height="32" viewBox="0 0 32 32" fill="none" xmlns="http://www.w3.org/2000/svg">
<g clip-path="url(#clip0_12_912)">
<path fill-rule="evenodd" clip-rule="evenodd" d="M24 32H8C5.87827 32 3.84344 31.1571 2.34315 29.6569C0.842855 28.1566 0 26.1217 0 24V8C0 5.87827 0.842855 3.84344 2.34315 2.34315C3.84344 0.842855 5.87827 0 8 0L24 0C26.1217 0 28.1566 0.842855 29.6569 2.34315C31.1571 3.84344 32 5.87827 32 8V24C32 26.1217 31.1571 28.1566 29.6569 29.6569C28.1566 31.1571 26.1217 32 24 32Z" fill="#4682C3"/>
<path fill-rule="evenodd" clip-rule="evenodd" d="M26.559 10.9019C26.721 10.3929 26.559 10.0234 25.8415 10.0234H23.459C23.237 10.0111 23.0168 10.0693 22.8299 10.1898C22.643 10.3102 22.499 10.4867 22.4185 10.6939C21.6734 12.4509 20.6842 14.0939 19.48 15.5744C18.925 16.1294 18.671 16.3149 18.37 16.3149C18.208 16.3149 18 16.1294 18 15.6204V10.8789C18 10.2774 17.8145 9.99994 17.306 9.99994H13.653C13.5769 9.99625 13.5009 10.0077 13.4293 10.0338C13.3577 10.0598 13.2919 10.0998 13.236 10.1514C13.18 10.2031 13.1348 10.2654 13.1032 10.3346C13.0715 10.4039 13.0539 10.4788 13.0515 10.5549C13.0515 11.1334 13.9075 11.2719 14 12.8914V16.4069C14 17.1704 13.861 17.3094 13.5605 17.3094C12.7505 17.3094 10.459 14.3254 9.279 10.9249C9.0475 10.2539 8.817 9.99994 8.215 9.99994H5.8095C5.1155 9.99994 5 10.3234 5 10.6704C5 12.1984 9.319 22.9764 16.2885 22.9764C17.8145 22.9764 18 22.6299 18 22.0514V19.9004C18 19.2059 18.139 19.0904 18.6245 19.0904C19.865 19.0904 22.11 21.8614 22.69 22.4419C22.8239 22.6109 22.9932 22.7485 23.186 22.8449C23.3789 22.9413 23.5905 22.9942 23.806 22.9999H26.1885C26.8825 22.9999 27.124 22.5784 26.9395 21.9079C26.5105 20.5279 23.526 17.6889 23.367 17.4714C23.0195 17.0084 23.112 16.8239 23.367 16.4069C23.3435 16.4069 26.258 12.2899 26.559 10.9019Z" fill="white"/>
</g>
<defs>
<clipPath id="clip0_12_912">
<rect width="32" height="32" fill="white"/>
</clipPath>
</defs>
</svg>
