<svg width="32" height="32" viewBox="0 0 32 32" fill="none" xmlns="http://www.w3.org/2000/svg">
<g clip-path="url(#clip0_12_917)">
<path fill-rule="evenodd" clip-rule="evenodd" d="M24 32H8C5.87827 32 3.84344 31.1571 2.34315 29.6569C0.842855 28.1566 0 26.1217 0 24V8C0 5.87827 0.842855 3.84344 2.34315 2.34315C3.84344 0.842855 5.87827 0 8 0L24 0C26.1217 0 28.1566 0.842855 29.6569 2.34315C31.1571 3.84344 32 5.87827 32 8V24C32 26.1217 31.1571 28.1566 29.6569 29.6569C28.1566 31.1571 26.1217 32 24 32Z" fill="#00D264"/>
<path fill-rule="evenodd" clip-rule="evenodd" d="M10.8365 23.5465C10.9696 23.5087 11.1091 23.4988 11.2461 23.5176C11.3832 23.5363 11.5149 23.5833 11.633 23.6555C13.621 24.8399 15.9733 25.2572 18.2474 24.8288C20.5215 24.4004 22.5608 23.1558 23.9816 21.3293C25.4024 19.5027 26.1069 17.2199 25.9625 14.9103C25.8181 12.6007 24.8349 10.4234 23.1977 8.78795C21.5605 7.15249 19.3822 6.17157 17.0724 6.02967C14.7627 5.88778 12.4806 6.59468 10.6556 8.01744C8.83049 9.44019 7.58813 11.4808 7.16215 13.7553C6.73618 16.0299 7.15593 18.3817 8.34248 20.3685C8.41442 20.4862 8.46116 20.6175 8.47975 20.7542C8.49834 20.8908 8.48837 21.0299 8.45047 21.1625C8.17197 22.148 7.49998 24.5 7.49998 24.5L10.8365 23.5465ZM6.60948 21.367C5.17989 18.9572 4.6792 16.1084 5.20143 13.3555C5.72366 10.6026 7.23288 8.13512 9.44569 6.41628C11.6585 4.69744 14.4227 3.84552 17.2192 4.02051C20.0156 4.1955 22.6521 5.38535 24.6333 7.36663C26.6146 9.34791 27.8045 11.9843 27.9795 14.7808C28.1544 17.5773 27.3025 20.3415 25.5837 22.5543C23.8648 24.7671 21.3973 26.2763 18.6445 26.7985C15.8916 27.3208 13.0428 26.8201 10.633 25.3905C10.633 25.3905 7.44448 26.3015 5.86547 26.753C5.77969 26.7774 5.68894 26.7785 5.6026 26.7561C5.51626 26.7337 5.43748 26.6886 5.37441 26.6256C5.31133 26.5625 5.26626 26.4837 5.24386 26.3974C5.22145 26.311 5.22253 26.2203 5.24698 26.1345L6.60948 21.367Z" fill="white"/>
<path fill-rule="evenodd" clip-rule="evenodd" d="M10.9905 12.393C11.146 14.6319 12.1015 16.7402 13.6826 18.333C15.2636 19.9258 17.3648 20.8969 19.6025 21.069H19.6035C19.9607 21.0967 20.3198 21.0466 20.6559 20.9223C20.992 20.7981 21.2972 20.6025 21.5505 20.349L21.8995 20C22.0642 19.8351 22.1568 19.6116 22.157 19.3785V18.6375C22.157 18.5446 22.1311 18.4535 22.0823 18.3745C22.0334 18.2955 21.9636 18.2316 21.8805 18.19L19.651 17.0755C19.5571 17.0285 19.4508 17.0122 19.3471 17.029C19.2435 17.0458 19.1477 17.0948 19.0735 17.169L18.1035 18.139C18.0453 18.1972 17.9736 18.2402 17.8949 18.2641C17.8161 18.288 17.7327 18.2921 17.652 18.276L17.6475 18.275C16.6795 18.0814 15.7904 17.6057 15.0924 16.9076C14.3943 16.2096 13.9186 15.3205 13.725 14.3525L13.724 14.348C13.7079 14.2673 13.712 14.1839 13.7359 14.1051C13.7598 14.0264 13.8028 13.9547 13.861 13.8965L14.831 12.9265C14.9052 12.8523 14.9542 12.7565 14.971 12.6529C14.9878 12.5492 14.9715 12.4429 14.9245 12.349L13.81 10.1195C13.7684 10.0364 13.7045 9.96657 13.6255 9.91774C13.5464 9.8689 13.4554 9.84303 13.3625 9.84302H12.7325C12.5829 9.84306 12.435 9.8745 12.2983 9.9353C12.1616 9.99611 12.0392 10.0849 11.939 10.196L11.607 10.565C11.3887 10.8073 11.2213 11.091 11.115 11.3993C11.0087 11.7076 10.9655 12.0342 10.988 12.3595L10.9905 12.393Z" fill="white"/>
</g>
<defs>
<clipPath id="clip0_12_917">
<rect width="32" height="32" fill="white"/>
</clipPath>
</defs>
</svg>
