<svg width="17" height="23" viewBox="0 0 17 23" fill="none" xmlns="http://www.w3.org/2000/svg">
<g id="Attachment">
<g id="Vector">
<path d="M10.7084 2.55518C11.323 2.24964 12.0454 2.15873 12.7604 2.35032C14.3163 2.76723 15.2397 4.36655 14.8228 5.92249L12.4503 14.7768C12.0334 16.3328 10.434 17.2561 8.87811 16.8392C7.32216 16.4223 6.3988 14.823 6.81571 13.267L7.76472 9.7253C7.87192 9.3252 7.63448 8.91395 7.23439 8.80674C6.83429 8.69954 6.42303 8.93698 6.31583 9.33708L5.36682 12.8788C4.7355 15.2349 6.13374 17.6568 8.48988 18.2881C10.846 18.9194 13.2678 17.5212 13.8992 15.165L16.2717 6.31072C16.903 3.95458 15.5048 1.53275 13.1486 0.901427C12.0672 0.611652 10.9701 0.749988 10.0407 1.21198C9.47083 1.49527 8.96281 1.9007 8.55828 2.40504C8.29911 2.72815 8.35094 3.20019 8.67406 3.45936C8.99717 3.71853 9.46921 3.6667 9.72838 3.34358C9.99495 3.01125 10.3307 2.74292 10.7084 2.55518Z" fill="#9755EE"/>
<path d="M4.22299 8.7763C4.6399 7.22036 6.23922 6.29699 7.79516 6.71391C9.3511 7.13082 10.2745 8.73013 9.85755 10.2861L8.90855 13.8278C8.80134 14.2279 9.03878 14.6392 9.43888 14.7464C9.83898 14.8536 10.2502 14.6161 10.3574 14.216L11.3064 10.6743C11.9378 8.31816 10.5395 5.89634 8.18339 5.26502C5.82725 4.63369 3.40542 6.03193 2.7741 8.38807L0.40159 17.2424C-0.229736 19.5985 1.1685 22.0204 3.52465 22.6517C4.6061 22.9415 5.70319 22.8031 6.63256 22.3411C7.20244 22.0578 7.71046 21.6524 8.11499 21.1481C8.37416 20.825 8.32232 20.3529 7.99921 20.0937C7.6761 19.8346 7.20406 19.8864 6.94489 20.2095C6.67832 20.5419 6.34253 20.8102 5.96485 20.9979C5.35022 21.3035 4.62787 21.3944 3.91287 21.2028C2.35693 20.7859 1.43357 19.1866 1.85048 17.6306L4.22299 8.7763Z" fill="#9755EE"/>
</g>
</g>
</svg>
