<svg width="64" height="64" viewBox="0 0 64 64" fill="none" xmlns="http://www.w3.org/2000/svg">
<circle cx="32" cy="32" r="32" fill="currentColor"/>
<g clip-path="url(#clip0_182_2223)">
<path d="M39.1556 24.2476C38.8261 24.2476 38.558 24.5157 38.558 24.8452C38.558 25.1746 38.8261 25.4428 39.1556 25.4428C39.4851 25.4428 39.7531 25.1747 39.7531 24.8452C39.7531 24.5156 39.4851 24.2476 39.1556 24.2476ZM32.0002 26.7026C29.079 26.7026 26.7023 29.0792 26.7023 32.0005C26.7023 34.9217 29.079 37.2984 32.0002 37.2984C34.9215 37.2984 37.2981 34.9218 37.2981 32.0005C37.2981 29.0793 34.9215 26.7026 32.0002 26.7026Z" fill="#1F1F29"/>
<path d="M37.56 19.6929H26.4404C22.7196 19.6929 19.6925 22.72 19.6925 26.4409V37.5603C19.6925 41.2812 22.7196 44.3083 26.4404 44.3083H37.56C41.2808 44.3083 44.3079 41.2811 44.3079 37.5603V26.4409C44.3079 22.72 41.2808 19.6929 37.56 19.6929ZM32.0002 38.7521C28.2774 38.7521 25.2487 35.7234 25.2487 32.0006C25.2487 28.2777 28.2774 25.2491 32.0002 25.2491C35.723 25.2491 38.7517 28.2778 38.7517 32.0006C38.7517 35.7234 35.723 38.7521 32.0002 38.7521ZM39.1555 26.8965C38.0245 26.8965 37.1043 25.9763 37.1043 24.8453C37.1043 23.7142 38.0245 22.794 39.1555 22.794C40.2866 22.794 41.2068 23.7142 41.2068 24.8452C41.2068 25.9763 40.2866 26.8965 39.1555 26.8965Z" fill="#1F1F29"/>
</g>
<defs>
<clipPath id="clip0_182_2223">
<rect width="24.6154" height="24.6154" fill="white" transform="translate(19.6925 19.6929)"/>
</clipPath>
</defs>
</svg>
