<svg width="50" height="50" viewBox="0 0 50 50" fill="none" xmlns="http://www.w3.org/2000/svg">
<circle cx="25" cy="25" r="24.25" stroke="#DDDDE3" stroke-width="1.5"/>
<g clip-path="url(#clip0_182_209)">
<path d="M30.5903 18.9434C30.3329 18.9434 30.1234 19.1528 30.1234 19.4102C30.1234 19.6676 30.3329 19.8771 30.5903 19.8771C30.8477 19.8771 31.0572 19.6677 31.0572 19.4102C31.0572 19.1528 30.8477 18.9434 30.5903 18.9434ZM25.0002 20.8614C22.718 20.8614 20.8612 22.7181 20.8612 25.0003C20.8612 27.2826 22.718 29.1393 25.0002 29.1393C27.2824 29.1393 29.1392 27.2826 29.1392 25.0004C29.1392 22.7181 27.2824 20.8614 25.0002 20.8614Z" fill="#9393A2"/>
<path d="M29.3437 15.3848H20.6566C17.7497 15.3848 15.3848 17.7497 15.3848 20.6566V29.3437C15.3848 32.2506 17.7497 34.6155 20.6566 34.6155H29.3437C32.2506 34.6155 34.6155 32.2506 34.6155 29.3437V20.6566C34.6155 17.7497 32.2506 15.3848 29.3437 15.3848ZM25.0002 30.2748C22.0917 30.2748 19.7255 27.9086 19.7255 25.0002C19.7255 22.0917 22.0917 19.7256 25.0002 19.7256C27.9086 19.7256 30.2748 22.0917 30.2748 25.0002C30.2748 27.9086 27.9086 30.2748 25.0002 30.2748ZM30.5903 21.0126C29.7066 21.0126 28.9877 20.2937 28.9877 19.4101C28.9877 18.5264 29.7066 17.8075 30.5903 17.8075C31.4739 17.8075 32.1928 18.5264 32.1928 19.41C32.1928 20.2937 31.4739 21.0126 30.5903 21.0126Z" fill="#9393A2"/>
</g>
<defs>
<clipPath id="clip0_182_209">
<rect width="19.2308" height="19.2308" fill="white" transform="translate(15.3848 15.3848)"/>
</clipPath>
</defs>
</svg>
