<svg width="62" height="62" viewBox="0 0 62 62" fill="none" xmlns="http://www.w3.org/2000/svg">
<circle cx="31" cy="31" r="31" fill="#F3F3F6"/>
<g clip-path="url(#clip0_12_1092)">
<rect width="23.8461" height="23.8461" transform="translate(19.0777 19.0762)" fill="#F3F3F6"/>
<rect x="22.3206" y="21.0791" width="18.6" height="18.6" fill="white"/>
<path d="M37.9325 23.4885C37.6133 23.4885 37.3536 23.7483 37.3536 24.0674C37.3536 24.3866 37.6133 24.6464 37.9325 24.6464C38.2517 24.6464 38.5114 24.3867 38.5114 24.0674C38.5114 23.7482 38.2517 23.4885 37.9325 23.4885ZM31.0008 25.8669C28.1708 25.8669 25.8685 28.1692 25.8685 30.9992C25.8685 33.8291 28.1708 36.1315 31.0008 36.1315C33.8308 36.1315 36.1332 33.8292 36.1332 30.9992C36.1332 28.1693 33.8308 25.8669 31.0008 25.8669Z" fill="#AE74FB"/>
<path d="M36.3868 19.0762H25.6148C22.0102 19.0762 19.0777 22.0087 19.0777 25.6133V36.3853C19.0777 39.9899 22.0102 42.9223 25.6148 42.9223H36.3868C39.9914 42.9223 42.9238 39.9898 42.9238 36.3853V25.6133C42.9238 22.0087 39.9914 19.0762 36.3868 19.0762ZM31.0008 37.5398C27.3943 37.5398 24.4603 34.6057 24.4603 30.9992C24.4603 27.3927 27.3943 24.4588 31.0008 24.4588C34.6072 24.4588 37.5413 27.3928 37.5413 30.9992C37.5413 34.6057 34.6072 37.5398 31.0008 37.5398ZM37.9325 26.0547C36.8368 26.0547 35.9454 25.1633 35.9454 24.0676C35.9454 22.9719 36.8368 22.0804 37.9325 22.0804C39.0282 22.0804 39.9197 22.9718 39.9197 24.0675C39.9197 25.1632 39.0282 26.0547 37.9325 26.0547Z" fill="#AE74FB"/>
</g>
<defs>
<clipPath id="clip0_12_1092">
<rect width="23.8461" height="23.8461" fill="white" transform="translate(19.0777 19.0762)"/>
</clipPath>
</defs>
</svg>
