<svg width="55" height="60" viewBox="0 0 55 60" fill="none" xmlns="http://www.w3.org/2000/svg">
<g clip-path="url(#clip0_162_44)">
<path fill-rule="evenodd" clip-rule="evenodd" d="M26.8279 2.03553C29.2673 1.98665 31.6773 2.5706 33.8191 3.72951C35.9609 4.88842 37.7601 6.58208 39.0386 8.6427C40.317 10.7033 41.0303 13.0594 41.1078 15.4775C41.1853 17.8956 40.6243 20.2918 39.4803 22.4287C38.3363 24.5657 36.6492 26.3692 34.5859 27.6605C32.5226 28.9519 30.1549 29.6864 27.7172 29.7911C25.2796 29.8959 22.8566 29.3673 20.6884 28.2578C18.5202 27.1483 16.6819 25.4963 15.3558 23.4655L15.3104 23.4255C13.9661 21.348 13.205 18.9526 13.1054 16.4863C13.0058 14.0199 13.5714 11.5719 14.7439 9.39447C15.9164 7.21708 17.6533 5.38915 19.7757 4.09912C21.898 2.8091 24.3289 2.10366 26.8178 2.05554L26.8279 2.03553ZM26.7875 0.0050607C29.9616 -0.0571292 33.083 0.815331 35.757 2.51212C38.4311 4.20891 40.5376 6.65382 41.8102 9.53768C43.0829 12.4215 43.4646 15.6148 42.9069 18.7138C42.3493 21.8127 40.8775 24.6781 38.6775 26.9476C36.4775 29.2171 33.6482 30.7888 30.5474 31.464C27.4466 32.1391 24.2135 31.8874 21.2569 30.7406C18.3004 29.5938 15.7532 27.6035 13.9375 25.0213C12.1217 22.4391 11.1189 19.3811 11.056 16.2338C10.9782 12.0151 12.5905 7.9379 15.5393 4.89584C18.4882 1.85378 22.5331 0.095033 26.7875 0.0050607ZM26.8027 0.775244C29.8234 0.715968 32.794 1.54625 35.3388 3.16109C37.8836 4.77593 39.8882 7.10278 41.0993 9.84737C42.3103 12.592 42.6732 15.631 42.1423 18.5802C41.6113 21.5293 40.2102 24.2561 38.1162 26.4156C36.0222 28.5752 33.3293 30.0705 30.3782 30.7125C27.4271 31.3544 24.3503 31.1142 21.5368 30.0222C18.7234 28.9302 16.2998 27.0354 14.5724 24.5775C12.8451 22.1196 11.8917 19.209 11.8327 16.2138C11.7584 12.1992 13.2924 8.31911 16.0986 5.42417C18.9047 2.52922 22.754 0.855613 26.8027 0.770238V0.775244ZM26.8027 1.0253C29.7748 0.965515 32.698 1.78111 35.2026 3.36892C37.7072 4.95672 39.6806 7.2454 40.8732 9.94544C42.0657 12.6455 42.4239 15.6356 41.9023 18.5375C41.3808 21.4394 40.003 24.1227 37.9431 26.2481C35.8833 28.3734 33.2341 29.8453 30.3305 30.4774C27.4269 31.1096 24.3995 30.8737 21.6311 29.7995C18.8628 28.7254 16.4779 26.8613 14.7782 24.443C13.0785 22.0247 12.1404 19.1609 12.0824 16.2138C12.0094 12.2646 13.5183 8.44777 16.2785 5.59979C19.0388 2.75181 22.8251 1.10501 26.8077 1.0203L26.8027 1.0253ZM26.8178 1.74547C29.6459 1.68964 32.4272 2.46662 34.81 3.97818C37.1927 5.48974 39.0699 7.66797 40.2041 10.2374C41.3383 12.8068 41.6786 15.6521 41.182 18.4133C40.6853 21.1745 39.374 23.7276 37.4139 25.7499C35.4538 27.7721 32.933 29.1726 30.1701 29.7742C27.4073 30.3758 24.5265 30.1515 21.8923 29.1297C19.258 28.1079 16.9884 26.3344 15.3707 24.0336C13.7529 21.7329 12.8596 19.0081 12.8036 16.2038C12.734 12.4454 14.1701 8.81299 16.7971 6.10275C19.424 3.39251 23.0276 1.82559 26.8178 1.74547ZM16.2258 8.31199L23.388 15.4136L23.8546 14.951L16.6243 7.78187C16.4881 7.95441 16.3545 8.13195 16.2258 8.31199ZM23.8344 15.8562L24.301 16.3189L24.7675 15.8562L24.301 15.3936L23.8344 15.8562ZM24.7473 16.764L25.2164 17.2266L25.6829 16.764L25.2139 16.2988L24.7473 16.764ZM25.6628 17.6692L26.1293 18.1318L26.5908 17.6642L26.1268 17.2141L25.6628 17.6692ZM26.5757 18.5744L27.0422 19.0395L27.5088 18.5744L27.0422 18.1118L26.5757 18.5744ZM27.4886 19.4821L34.7794 26.7163C34.961 26.5887 35.14 26.4662 35.3166 26.3212L27.9552 19.0145L27.4861 19.4771L27.4886 19.4821ZM34.2498 27.0688L27.0422 19.9247L19.8902 27.0188C22.0264 28.3928 24.5163 29.1282 27.0626 29.1371C29.6089 29.1459 32.1039 28.4279 34.2498 27.0688ZM26.5908 19.4771L26.1243 19.012L18.8108 26.2637C18.9848 26.4012 19.1613 26.5337 19.3429 26.6637L26.5807 19.4871L26.5908 19.4771ZM25.6779 18.5694L25.2114 18.1068L17.8474 25.4085C18.0063 25.5585 18.1677 25.706 18.3342 25.8511L25.6779 18.5694ZM24.765 17.6642L24.2984 17.2141L16.9648 24.4657C17.1085 24.6308 17.2548 24.7958 17.4061 24.9659L24.7675 17.6692L24.765 17.6642ZM23.8495 16.7565L23.383 16.2963L16.1653 23.4505C16.2939 23.633 16.4175 23.8081 16.5613 23.9831L23.8495 16.7565ZM22.9366 15.8512L15.8753 8.83711C14.5239 10.9388 13.8016 13.3774 13.7922 15.8699C13.7828 18.3623 14.4868 20.8063 15.8223 22.9179L22.9492 15.8512H22.9366ZM17.0228 7.29176L24.2959 14.5034L24.7625 14.0408L17.4666 6.80664C17.3178 6.96168 17.169 7.12672 17.0253 7.29176H17.0228ZM24.7423 14.946L25.2088 15.4086L25.6754 14.946L25.2114 14.4834L24.7423 14.946ZM25.6552 15.8512L26.1243 16.3164L26.5908 15.8537L26.1243 15.3886L25.6552 15.8512ZM26.5707 16.759L27.0372 17.2216L27.5038 16.759L27.0372 16.2963L26.5707 16.759ZM27.4836 17.6642L27.9526 18.1268L28.4192 17.6642L27.9526 17.2141L27.4836 17.6642ZM28.399 18.5694L35.8033 25.9136C35.9697 25.7685 36.1337 25.6235 36.2925 25.471L28.8605 18.1068L28.394 18.5694H28.399ZM17.918 6.36154L25.2139 13.5957L25.6804 13.1331L18.4048 5.92144C18.2383 6.06397 18.0769 6.21151 17.918 6.36154ZM25.6602 14.0408L26.1268 14.5034L26.5934 14.0408L26.1268 13.5782L25.6602 14.0408ZM26.5732 14.946L27.0397 15.4086L27.5063 14.946L27.0397 14.4834L26.5732 14.946ZM27.4861 15.8512L27.9552 16.3164L28.4217 15.8512L27.9552 15.3886L27.4861 15.8512ZM28.4015 16.759L28.8605 17.2141L29.3271 16.7514L28.8605 16.2963L28.4015 16.759ZM29.3145 17.6642L36.7414 25.0284C36.8953 24.8708 37.0415 24.7083 37.1878 24.5433L29.781 17.2141L29.3145 17.6767V17.6642ZM18.8965 5.52134L26.1268 12.6905L26.5934 12.2279L19.4312 5.12625C19.2496 5.25378 19.0705 5.37631 18.8965 5.52134ZM26.5732 13.1331L27.0397 13.5957L27.5063 13.1331L27.0397 12.6705L26.5732 13.1331ZM27.4861 14.0383L27.9552 14.5034L28.4217 14.0408L27.9526 13.5757L27.4861 14.0383ZM28.4015 14.946L28.8681 15.4086L29.3346 14.946L28.8605 14.4834L28.4015 14.946ZM29.3145 15.8512L29.781 16.3164L30.2501 15.8512L29.781 15.3886L29.3145 15.8512ZM30.2274 16.759L37.5913 24.0581C37.7275 23.8856 37.8612 23.7081 37.9898 23.528L30.6965 16.2938L30.2274 16.759ZM19.9658 4.76867L27.0271 11.7853L34.1565 4.71116C32.0268 3.38739 29.5623 2.68945 27.0488 2.69831C24.5353 2.70716 22.0758 3.42244 19.9557 4.76117L19.9658 4.76867ZM27.4861 12.2279L27.9526 12.6905L35.2409 5.46133C35.0669 5.3263 34.8879 5.19627 34.7038 5.06874L27.4861 12.2279ZM28.4015 13.1331L28.8681 13.5982L36.2295 6.29903C36.0681 6.14899 35.9042 6.00396 35.7251 5.86142L28.3915 13.1331H28.4015ZM29.3145 14.0408L29.781 14.5034L37.1273 7.21174C36.981 7.0467 36.8322 6.88666 36.6784 6.72913L29.3145 14.0308V14.0408ZM30.2274 14.946L30.6965 15.4086L37.9343 8.23197C37.8057 8.05193 37.6821 7.87689 37.5333 7.70435L30.2274 14.946ZM31.1428 15.8512L38.3479 22.9979C39.7185 20.8696 40.4425 18.3953 40.4336 15.8701C40.4246 13.345 39.6831 10.8758 38.2975 8.75709L31.1428 15.8512Z" fill="#DAA84C"/>
<path fill-rule="evenodd" clip-rule="evenodd" d="M27.1305 19.9348L26.8783 19.9123L26.6261 19.8873L26.374 19.8522L26.1218 19.8097L25.8544 19.7622L25.5821 19.7147L25.2921 19.6522L24.9894 19.5822L24.6717 19.5022L24.3388 19.4196L23.9933 19.3271L23.6276 19.2271L23.2443 19.1196L22.6617 18.957L21.8068 18.9845L21.0856 19.1596L20.4475 19.4922L19.9431 19.9598L19.5724 20.5074L19.3202 21.0925L19.184 21.6852L19.126 22.2828V22.8729L19.1815 23.4556L19.2799 24.0257L19.4135 24.5783L19.5749 25.106L19.759 25.6061L19.9658 26.0662L20.1701 26.4463L20.2634 26.6138L20.3391 26.7738L20.4198 26.9689L20.5005 27.1865L20.5812 27.4365L20.6543 27.6866L20.7249 27.9566L20.7905 28.2167L20.8485 28.5018L20.8939 28.7868L20.9317 29.0744L20.9595 29.3544L20.9771 29.627V29.8771V30.1271L20.9519 30.4372V31.0248L20.9771 31.5525L21.0175 32.0526L21.0679 32.5327L21.1335 32.9928L21.2066 33.4304L21.2923 33.848L21.3857 34.2481L21.4865 34.6307L21.595 34.9933L21.7085 35.3408L21.8245 35.6734L21.9405 35.9885L22.059 36.2911L22.1775 36.5811L22.2935 36.8587L22.407 37.1238L22.5155 37.3738L22.6189 37.6239L22.7147 37.8589L22.803 38.0865L22.8837 38.309L22.9568 38.5241C23.3906 39.9894 23.0955 41.3497 22.9568 42.8801C24.4851 41.8299 25.9326 40.9997 26.548 39.1792L26.6362 38.8542L26.7018 38.5341L26.7472 38.219L26.7749 37.9114L26.7875 37.6089V37.3163V37.0287L26.7674 36.7512L26.7422 36.4836L26.7094 36.221L26.6766 35.971L26.6413 35.7209L26.6085 35.4859L26.5782 35.2558L26.548 35.0333L26.5253 34.8207L26.5076 34.6157L26.495 34.4206V34.048L26.5076 33.8755L26.5303 33.708L26.5606 33.5454L26.6009 33.3879L26.6816 33.1378L26.7396 32.8878L26.8002 32.6602L26.8758 32.4377L26.9691 32.2451L27.07 32.1026L27.1684 32.0151L27.2869 31.9551L27.3701 31.9376H27.3978L27.4912 31.9901L27.5971 32.0726L27.7156 32.1876L27.8417 32.3351L27.9728 32.5152L28.1014 32.7302L28.2301 32.9803L28.3536 33.2479L28.4722 33.5404L28.5831 33.8555L28.684 34.1856L28.7773 34.5307L28.8631 34.8882L28.9387 35.2533L29.0043 35.6259L29.0623 36.001L29.1102 36.3761L29.148 36.7487L29.1783 37.1187L29.1985 37.4788V37.8289C29.2111 39.5318 28.8126 41.1672 28.5403 42.8501C29.8592 41.8249 31.158 41.0147 32.0986 39.6443L32.6787 38.6991L32.9309 38.2265L33.1578 37.7514L33.3596 37.2738L33.5361 36.7887L33.6874 36.2886L33.8161 35.7885L33.922 35.2883L34.0052 34.7632L34.0682 34.2256L34.1111 33.668L34.1414 33.0453L34.1086 32.5577V32.1501L34.1237 31.7225L34.1616 31.2799L34.2145 30.8273L34.2851 30.3672L34.3709 29.9021L34.4692 29.442L34.5777 28.9844L34.6937 28.5343L34.8172 28.0967L34.9433 27.6766L35.0745 27.274L35.2031 26.8964L35.3317 26.5413L35.4553 26.2087L35.599 25.8311L35.7504 25.406L35.8966 24.9509L36.0303 24.4733L36.1488 23.9732L36.2421 23.4581L36.3001 22.9305L36.3153 22.3928L36.2749 21.8427L36.1589 21.2901L35.9496 20.7399L35.6268 20.2173L35.1804 19.7572L34.6256 19.3946L33.9901 19.1446L33.2739 19.0021H32.7695L32.3307 19.022L31.8969 19.0646L31.4682 19.1246L31.0495 19.2021L30.6385 19.2871L30.2375 19.3796L29.8491 19.4747L29.4759 19.5697L29.1203 19.6597L28.7849 19.7422L28.4747 19.8147L28.1922 19.8723L27.9401 19.9123L27.7383 19.9348H27.5719H27.3499H27.0977H27.1305ZM27.5971 21.1275C26.1218 21.1075 24.7246 20.755 22.5079 20.1273C19.3328 19.9523 20.2382 24.2408 21.2116 25.8787C21.7866 26.8414 22.2885 28.9969 22.1372 30.4797C22.1548 36.1435 24.7347 37.2463 24.3514 40.6871C26.9288 37.8064 24.6162 35.3308 25.5443 32.8328C25.6552 32.4177 25.8822 30.8548 27.4155 30.7598C30.2501 31.1874 30.8503 38.5916 30.1064 40.432C32.1516 37.8139 32.8804 36.031 32.9687 33.0828C32.7367 30.7073 33.6824 27.5615 34.3583 25.8311C35.0871 23.9657 36.1236 20.5799 33.1503 20.2073C31.279 20.0923 28.8631 21.155 27.6021 21.1375L27.5971 21.1275Z" fill="#DAA84C"/>
<path fill-rule="evenodd" clip-rule="evenodd" d="M27.5996 21.1275C26.1243 21.1075 24.7272 20.7549 22.5104 20.1273C19.3354 19.9522 20.2407 24.2407 21.2142 25.8786C21.7892 26.8413 22.291 28.9968 22.1397 30.4797C22.1574 36.1435 24.7373 37.2462 24.3539 40.687C26.9313 37.8064 24.6187 35.3308 25.5468 32.8327C25.6577 32.4176 25.8847 30.8548 27.418 30.7597C30.2526 31.1873 30.8528 38.5915 30.1089 40.432C32.1541 37.8139 32.883 36.031 32.9712 33.0828C32.7392 30.7072 33.6849 27.5615 34.3608 25.8311C35.0896 23.9657 36.1261 20.5799 33.1528 20.2073C31.2816 20.0923 28.8656 21.155 27.6046 21.1375L27.5996 21.1275Z" fill="white"/>
<path fill-rule="evenodd" clip-rule="evenodd" d="M8.61477 53.74C8.52609 53.7019 8.43513 53.6694 8.34241 53.6424C6.95032 53.2673 5.58598 54.5576 6.76371 55.4078C7.18486 55.7129 7.46479 55.6579 7.66402 55.5179C7.7481 55.4418 7.80379 55.3398 7.82202 55.2285C7.84026 55.1171 7.81996 55.0029 7.76445 54.9044C7.70894 54.8059 7.62146 54.7289 7.51624 54.6859C7.41102 54.6429 7.29423 54.6365 7.18486 54.6677C7.56315 53.6349 8.92497 54.3651 8.39285 55.4503C8.26576 55.6896 8.06385 55.8816 7.8174 55.9975C7.57096 56.1134 7.29326 56.1469 7.02598 56.093C6.54682 56.0105 6.13071 55.5929 5.88356 55.0403C4.98325 56.2255 4.02997 56.2355 3.07166 56.208C4.49652 55.7079 5.11691 54.9202 5.72721 54.1225C6.29211 53.3724 6.98815 52.7897 8.12805 52.9923L8.61729 53.7425L8.61477 53.74Z" fill="#DAA84C"/>
<path fill-rule="evenodd" clip-rule="evenodd" d="M13.3131 59.426H8.53661V58.6258C8.69044 58.6133 8.84175 58.6058 8.99055 58.6058C9.19603 58.6233 9.40273 58.5915 9.59328 58.5133C9.67637 58.4675 9.74593 58.4009 9.79504 58.3202C9.84415 58.2395 9.8711 58.1474 9.87321 58.0532C9.81903 57.717 9.72857 57.3875 9.60336 57.0705C8.16084 52.8845 8.24659 53.2996 6.27951 47.8533C4.19643 53.6047 4.49149 52.7495 2.81443 57.378C2.73241 57.5763 2.67892 57.7851 2.65555 57.9982C2.64982 58.1166 2.68315 58.2336 2.7505 58.3315C2.81785 58.4294 2.91555 58.5029 3.02879 58.5408C3.20812 58.6005 3.39724 58.626 3.58613 58.6158C3.76014 58.6158 3.90137 58.6158 4.00981 58.6158V59.416H0V58.6158C0.590123 58.6158 1.00035 58.46 1.23068 58.1482C1.43124 57.8294 1.59213 57.4877 1.70984 57.1305L5.89366 46.1279H7.47741L11.6411 57.2405C11.7523 57.5879 11.9174 57.9161 12.1303 58.2132C12.2508 58.35 12.401 58.458 12.5696 58.529C12.7382 58.6 12.9208 58.6323 13.1038 58.6233H13.3131V59.426Z" fill="#DAA84C"/>
<path fill-rule="evenodd" clip-rule="evenodd" d="M27.2743 56.2529C26.9053 56.7974 26.4718 57.2961 25.9831 57.7382C24.6655 58.9707 22.9221 59.6561 21.1108 59.6537C20.1441 59.6826 19.1837 59.4906 18.3038 59.0925C17.424 58.6945 16.6483 58.101 16.0367 57.3582C14.9613 56.0905 14.3877 54.4783 14.4227 52.8221C14.4091 51.6129 14.7087 50.4204 15.2928 49.3588C15.8746 48.3054 16.7363 47.4302 17.7844 46.8282C18.807 46.2189 19.9783 45.8989 21.1713 45.903C22.4216 45.9048 23.6404 46.2919 24.6591 47.0108C24.596 46.073 25.1836 45.6504 26.0663 45.4629C24.3993 47.6734 27.7963 49.4413 26.1596 51.9644C25.3238 53.1344 24.9399 54.5632 25.0777 55.9903C24.5733 54.9251 24.1093 53.8448 25.0222 52.2395C24.2657 52.2395 23.5848 51.9719 23.2569 51.4743C23.0619 51.2002 22.9624 50.8705 22.9733 50.5353C22.9842 50.2 23.105 49.8774 23.3174 49.6164C24.2959 48.4811 25.8065 49.6514 24.8129 50.5916C24.8123 50.4413 24.7555 50.2966 24.6536 50.1854C24.5516 50.0742 24.4118 50.0045 24.261 49.9895C24.1102 49.9746 23.9591 50.0156 23.837 50.1046C23.715 50.1937 23.6305 50.3244 23.5999 50.4716C23.5444 50.7591 23.5999 51.1417 24.1698 51.4318C24.3326 51.5174 24.5133 51.5645 24.6975 51.5693C24.8817 51.5741 25.0646 51.5365 25.2317 51.4594C25.3988 51.3824 25.5457 51.268 25.6607 51.1252C25.7758 50.9825 25.8559 50.8152 25.8948 50.6366C26.089 49.7664 25.2795 48.6361 25.0323 48.3311C24.2556 47.3583 22.8156 46.9157 21.3302 46.9157C19.4808 46.9157 18.0963 47.8209 17.1766 49.6314C16.7107 50.5632 16.4763 51.5921 16.4932 52.6321C16.4803 53.6345 16.6904 54.6275 17.1085 55.5402C17.5138 56.4548 18.1868 57.2275 19.0403 57.7583C19.794 58.2335 20.669 58.4851 21.5622 58.4834C22.5443 58.4703 23.5038 58.19 24.3363 57.6732C25.1771 57.1718 25.9099 56.5107 26.4925 55.7278L27.2491 56.2529H27.2743Z" fill="#DAA84C"/>
<path fill-rule="evenodd" clip-rule="evenodd" d="M41.6692 55.2625L40.1561 59.426H28.8605V58.6258H29.2439C29.5258 58.6465 29.8093 58.6178 30.0811 58.5408C30.2512 58.4538 30.387 58.313 30.467 58.1407C30.5506 57.8731 30.5831 57.5924 30.5628 57.313V48.1608C30.5853 47.8809 30.543 47.5995 30.4392 47.3381C30.3345 47.1851 30.1822 47.0701 30.0055 47.0106C29.628 46.9422 29.2436 46.9187 28.8605 46.9406V46.1304H39.7551L41.0161 49.6312L40.1687 49.9463C39.798 48.946 39.2709 48.2158 38.585 47.7632C38.1506 47.4879 37.6576 47.3167 37.145 47.2631C36.6305 47.2119 36.1134 47.1919 35.5965 47.2031H32.3483V53.2045C33.5462 54.1922 35.4704 53.5446 34.7088 52.1718C34.4339 51.6717 34.1288 51.6116 33.8741 51.6516C33.739 51.6701 33.6162 51.7388 33.5303 51.8437C33.4444 51.9487 33.402 52.0821 33.4116 52.2169C33.4213 52.3517 33.4822 52.4778 33.5821 52.5697C33.682 52.6616 33.8134 52.7125 33.9497 52.7119C33.0948 53.5546 32.0911 52.2118 33.1225 51.3866C33.3604 51.2097 33.6498 51.114 33.9472 51.114C34.2446 51.114 34.5339 51.2097 34.7719 51.3866C35.2031 51.6917 35.425 52.2868 35.4048 52.9519C36.8449 52.2018 37.7931 52.6219 38.7237 53.0895C37.0895 52.9219 36.1059 53.4196 35.1325 53.9272C34.2624 54.3798 33.347 54.6498 32.3458 54.0122V57.343C32.3458 57.9556 32.4341 58.3007 32.6156 58.3807C32.8723 58.4466 33.1381 58.4703 33.4025 58.4507H35.42C36.22 58.4738 37.0186 58.37 37.7855 58.1432C38.5378 57.8828 39.2053 57.4258 39.7173 56.8204C40.168 56.2672 40.5343 55.6513 40.8042 54.9924L41.6768 55.2975L41.6692 55.2625Z" fill="#DAA84C"/>
<path fill-rule="evenodd" clip-rule="evenodd" d="M54.2307 49.9067C54.2585 52.8098 51.9282 54.4402 49.4391 54.3677C48.5464 54.3427 47.6536 54.2102 46.4784 54.8328V57.1684C46.4585 57.4916 46.4865 57.8159 46.5617 58.1311C46.7029 58.4612 47.0837 58.6312 47.6965 58.6312H48.1605V59.4314H42.9831V58.6312H43.3009C43.9919 58.6312 44.413 58.4787 44.5618 58.1736C44.6512 57.8908 44.6871 57.5941 44.6677 57.2984V48.2013C44.6677 47.5536 44.524 47.1635 44.2339 47.036C43.9307 46.956 43.6167 46.9239 43.3034 46.941H42.9831V46.1333H48.2791C49.8695 46.1333 50.9783 46.235 51.6054 46.4384C53.3708 47.011 54.2232 48.1663 54.2408 49.9067H54.2307ZM50.4151 47.3336C49.6743 47.1987 48.9209 47.1433 48.1681 47.1685H46.486V54.8303C47.0408 54.1952 47.6208 53.58 48.9373 53.7176C48.8257 53.5061 48.7674 53.271 48.7674 53.0324C48.7674 52.7938 48.8257 52.5587 48.9373 52.3472C49.0607 52.1404 49.2492 51.9795 49.4738 51.8892C49.6984 51.7988 49.9467 51.784 50.1806 51.8471C51.2146 52.1547 50.8766 53.4725 49.9687 53.0974C50.0704 53.0558 50.1526 52.9777 50.1986 52.8787C50.2447 52.7796 50.2514 52.667 50.2173 52.5633C50.1831 52.4596 50.1108 52.3725 50.0147 52.3194C49.9185 52.2664 49.8058 52.2513 49.6989 52.2772C49.4921 52.3247 49.25 52.4673 49.2298 52.9249C49.1945 53.7551 50.0368 53.7901 50.8186 53.585C51.8526 53.3175 52.8916 52.4423 52.8033 50.1842C52.7605 49.104 52.299 47.8037 50.4202 47.3311L50.4151 47.3336Z" fill="#DAA84C"/>
</g>
<defs>
<clipPath id="clip0_162_44">
<rect width="54.2308" height="59.6538" fill="white"/>
</clipPath>
</defs>
</svg>
