<svg width="32" height="32" viewBox="0 0 32 32" fill="none" xmlns="http://www.w3.org/2000/svg">
<g clip-path="url(#clip0_12_924)">
<path fill-rule="evenodd" clip-rule="evenodd" d="M24 32H8C5.87827 32 3.84344 31.1571 2.34315 29.6569C0.842855 28.1566 0 26.1217 0 24V8C0 5.87827 0.842855 3.84344 2.34315 2.34315C3.84344 0.842855 5.87827 0 8 0L24 0C26.1217 0 28.1566 0.842855 29.6569 2.34315C31.1571 3.84344 32 5.87827 32 8V24C32 26.1217 31.1571 28.1566 29.6569 29.6569C28.1566 31.1571 26.1217 32 24 32Z" fill="#199BDF"/>
<path fill-rule="evenodd" clip-rule="evenodd" d="M22.54 8.51611C22.7858 8.41463 23.0542 8.38032 23.3176 8.41668C23.581 8.45305 23.83 8.55879 24.0391 8.72307C24.2482 8.88735 24.4099 9.10427 24.5076 9.3516C24.6053 9.59893 24.6354 9.86778 24.595 10.1306L22.377 24.5501C22.3378 24.8052 22.2334 25.0458 22.074 25.2488C21.9145 25.4517 21.7054 25.6101 21.4668 25.7086C21.2283 25.8071 20.9684 25.8424 20.7122 25.811C20.456 25.7796 20.2123 25.6827 20.0045 25.5296L13.4635 20.7101C13.3457 20.6232 13.2484 20.5115 13.1785 20.3829C13.1085 20.2543 13.0677 20.112 13.0588 19.9659C13.0499 19.8197 13.0733 19.6735 13.1271 19.5373C13.181 19.4012 13.2641 19.2786 13.3705 19.1781L19.474 13.4136C19.5195 13.3707 19.5472 13.3124 19.5518 13.2501C19.5563 13.1877 19.5374 13.126 19.4987 13.0769C19.46 13.0279 19.4043 12.9951 19.3427 12.985C19.281 12.975 19.2178 12.9884 19.1655 13.0226L11.0965 18.2851C10.7506 18.5107 10.3619 18.6624 9.95473 18.7308C9.54752 18.7992 9.13058 18.7828 8.73 18.6826L4.944 17.7361C4.73977 17.6851 4.55684 17.571 4.42126 17.41C4.28569 17.2489 4.20438 17.0493 4.18892 16.8393C4.17346 16.6294 4.22464 16.4199 4.33517 16.2408C4.4457 16.0617 4.60994 15.922 4.8045 15.8416L22.54 8.51611Z" fill="white"/>
</g>
<defs>
<clipPath id="clip0_12_924">
<rect width="32" height="32" fill="white"/>
</clipPath>
</defs>
</svg>
