<svg width="64" height="64" viewBox="0 0 64 64" fill="none" xmlns="http://www.w3.org/2000/svg">
<circle cx="32" cy="32" r="32" fill="#DEDEE2"/>
<g clip-path="url(#clip0_182_2217)">
<path d="M32.0031 18.4609H31.9964C24.5316 18.4609 18.4613 24.5329 18.4613 31.9994C18.4613 34.9609 19.4158 37.7059 21.0387 39.9346L19.3515 44.9642L24.5553 43.3006C26.6961 44.7188 29.2498 45.5379 32.0031 45.5379C39.4679 45.5379 45.5382 39.4642 45.5382 31.9994C45.5382 24.5346 39.4679 18.4609 32.0031 18.4609Z" fill="#1F1F29"/>
<path d="M39.8808 37.5792C39.5542 38.5015 38.2579 39.2664 37.2239 39.4898C36.5165 39.6404 35.5925 39.7606 32.4821 38.471C28.5034 36.8227 25.9413 32.7798 25.7416 32.5175C25.5504 32.2552 24.1339 30.3767 24.1339 28.4339C24.1339 26.4912 25.1205 25.5452 25.5182 25.139C25.8448 24.8056 26.3847 24.6533 26.9025 24.6533C27.0701 24.6533 27.2207 24.6618 27.3561 24.6686C27.7538 24.6855 27.9534 24.7092 28.2158 25.337C28.5424 26.1239 29.3378 28.0667 29.4325 28.2664C29.529 28.4661 29.6254 28.7369 29.4901 28.9992C29.3631 29.2699 29.2514 29.3901 29.0518 29.6202C28.8521 29.8504 28.6625 30.0264 28.4628 30.2735C28.2801 30.4884 28.0736 30.7186 28.3038 31.1162C28.5339 31.5055 29.3293 32.8035 30.5004 33.8459C32.0116 35.1913 33.2368 35.6212 33.6751 35.8039C34.0018 35.9393 34.391 35.9072 34.6296 35.6533C34.9325 35.3267 35.3065 34.7852 35.6873 34.2521C35.9581 33.8696 36.2999 33.8222 36.6587 33.9576C37.0242 34.0845 38.9585 35.0407 39.3562 35.2387C39.7539 35.4384 40.0162 35.5332 40.1127 35.7007C40.2074 35.8682 40.2074 36.6552 39.8808 37.5792Z" fill="#FAFAFA"/>
</g>
<defs>
<clipPath id="clip0_182_2217">
<rect width="27.0769" height="27.0769" fill="white" transform="translate(18.4613 18.4609)"/>
</clipPath>
</defs>
</svg>
