<svg width="50" height="50" viewBox="0 0 50 50" fill="none" xmlns="http://www.w3.org/2000/svg">
<circle cx="25" cy="25" r="24.25" stroke="#DDDDE3" stroke-width="1.5"/>
<g clip-path="url(#clip0_182_203)">
<path d="M25.0025 14.4229H24.9973C19.1654 14.4229 14.423 19.1666 14.423 24.9998C14.423 27.3135 15.1686 29.4579 16.4366 31.1992L15.1184 35.1285L19.1839 33.8289C20.8564 34.9368 22.8515 35.5767 25.0025 35.5767C30.8344 35.5767 35.5768 30.8316 35.5768 24.9998C35.5768 19.1679 30.8344 14.4229 25.0025 14.4229Z" fill="#9393A2"/>
<path d="M31.157 29.3586C30.9018 30.0791 29.8891 30.6767 29.0813 30.8512C28.5286 30.9689 27.8067 31.0628 25.3767 30.0553C22.2684 28.7676 20.2667 25.6091 20.1107 25.4041C19.9613 25.1992 18.8547 23.7316 18.8547 22.2139C18.8547 20.6961 19.6255 19.957 19.9362 19.6397C20.1914 19.3792 20.6131 19.2603 21.0177 19.2603C21.1486 19.2603 21.2662 19.2669 21.372 19.2722C21.6827 19.2854 21.8387 19.3039 22.0436 19.7944C22.2988 20.4092 22.9202 21.927 22.9942 22.083C23.0696 22.239 23.145 22.4505 23.0392 22.6554C22.94 22.867 22.8528 22.9609 22.6968 23.1407C22.5408 23.3205 22.3927 23.458 22.2367 23.651C22.0939 23.8189 21.9326 23.9987 22.1124 24.3094C22.2922 24.6135 22.9136 25.6276 23.8285 26.442C25.0092 27.4931 25.9664 27.8289 26.3088 27.9717C26.564 28.0774 26.868 28.0523 27.0545 27.854C27.2911 27.5988 27.5833 27.1758 27.8808 26.7593C28.0923 26.4605 28.3594 26.4235 28.6397 26.5292C28.9253 26.6284 30.4364 27.3754 30.7471 27.5301C31.0578 27.6861 31.2628 27.7601 31.3381 27.891C31.4122 28.0219 31.4122 28.6367 31.157 29.3586Z" fill="#FAFAFA"/>
</g>
<defs>
<clipPath id="clip0_182_203">
<rect width="21.1538" height="21.1538" fill="white" transform="translate(14.423 14.4229)"/>
</clipPath>
</defs>
</svg>
