<svg width="62" height="62" viewBox="0 0 62 62" fill="none" xmlns="http://www.w3.org/2000/svg">
<circle cx="31" cy="31" r="31" fill="#F3F3F6"/>
<g clip-path="url(#clip0_12_1086)">
<rect width="26.2308" height="26.2308" transform="translate(17.8844 17.8857)" fill="#F3F3F6"/>
<path d="M31.0031 17.8857H30.9965C23.765 17.8857 17.8844 23.768 17.8844 31.0011C17.8844 33.8701 18.809 36.5293 20.3812 38.6884L18.7467 43.5607L23.788 41.9492C25.8618 43.323 28.3357 44.1165 31.0031 44.1165C38.2346 44.1165 44.1152 38.2326 44.1152 31.0011C44.1152 23.7696 38.2346 17.8857 31.0031 17.8857Z" fill="#AE74FB"/>
<path d="M38.6346 36.4062C38.3182 37.2997 37.0624 38.0407 36.0607 38.2571C35.3754 38.403 34.4803 38.5194 31.467 37.2702C27.6128 35.6734 25.1307 31.7568 24.9372 31.5027C24.752 31.2486 23.3798 29.4288 23.3798 27.5467C23.3798 25.6647 24.3355 24.7483 24.7208 24.3548C25.0372 24.0318 25.5602 23.8843 26.0619 23.8843C26.2242 23.8843 26.3701 23.8925 26.5012 23.899C26.8865 23.9154 27.0799 23.9384 27.334 24.5466C27.6505 25.3089 28.421 27.191 28.5128 27.3844C28.6062 27.5779 28.6997 27.8402 28.5685 28.0943C28.4456 28.3566 28.3374 28.473 28.1439 28.696C27.9505 28.9189 27.7669 29.0894 27.5734 29.3288C27.3963 29.537 27.1963 29.76 27.4193 30.1452C27.6423 30.5223 28.4128 31.7797 29.5473 32.7896C31.0113 34.093 32.1982 34.5094 32.6228 34.6864C32.9392 34.8176 33.3163 34.7864 33.5475 34.5405C33.8409 34.2241 34.2032 33.6995 34.5721 33.1831C34.8344 32.8126 35.1656 32.7667 35.5131 32.8978C35.8672 33.0208 37.7411 33.9471 38.1264 34.1389C38.5116 34.3323 38.7657 34.4241 38.8592 34.5864C38.951 34.7487 38.951 35.5111 38.6346 36.4062Z" fill="#FAFAFA"/>
</g>
<defs>
<clipPath id="clip0_12_1086">
<rect width="26.2308" height="26.2308" fill="white" transform="translate(17.8844 17.8857)"/>
</clipPath>
</defs>
</svg>
